<?xml version="1.0" encoding="UTF-8"?>
<svg id="Layer_1" data-name="Layer 1" xmlns="http://www.w3.org/2000/svg" viewBox="0 0 538.73 311.61">
  <defs>
    <style>
      .cls-1 {
        fill: #231f20;
      }

      .cls-1, .cls-2, .cls-3, .cls-4 {
        stroke-width: 0px;
      }

      .cls-2 {
        fill: #fbfbfb;
      }

      .cls-3 {
        fill: #050403;
      }

      .cls-4 {
        fill: #e7272e;
      }
    </style>
  </defs>
  <path class="cls-3" d="M376.01,178.1c4.13-.38,8.29-.54,12.43-.79,4.41-.23,8.82-.5,13.24-.66-4.42.16-8.83.43-13.24.66-4.15.25-8.3.41-12.43.79Z"/>
  <path class="cls-1" d="M446.39,293.77c-.02,2.52-.06,5.04-.08,7.57.02-2.52.06-5.04.08-7.57Z"/>
  <path class="cls-1" d="M355.12,259c-.03,8.22-.02,16.43-.02,24.65,0,4.11,0,8.22.01,12.32,0-4.11-.01-8.22-.01-12.32,0-8.22-.01-16.43.02-24.65Z"/>
  <path class="cls-1" d="M446.39,293.77c.03-5.04-.04-10.09-.59-15.12h0c.55,5.03.62,10.08.59,15.12Z"/>
  <path class="cls-4" d="M537.06,97.65c-32.2-32.33-64.39-64.68-96.57-97.02-.18-.18-.31-.42-.46-.63h-.53c-1.03,1.99-2.78,3.36-4.31,4.9-26.97,27.17-53.98,54.3-80.91,81.51-1.57,1.58-2.23.77-3.29-.34-18.21-18.91-36.44-37.81-54.67-56.7-8.41-8.72-16.86-17.4-25.2-26.18-1.49-1.57-2.26-1.71-3.85-.03-26.06,27.43-52.19,54.8-78.3,82.17-2.33,2.44-2.34,2.44-4.71.05C156.58,57.54,128.91,29.7,101.25,1.84c-.53-.54-1.34-.91-1.38-1.84h-.53c-.4.47-.76.96-1.19,1.4C67.65,32.05,37.23,62.78,6.56,93.26c-4.07,4.05-5.75,7.98-5.72,13.75.25,42.88.15,85.77.09,128.65,0,2.35.5,3.12,3.02,3.12,34.05-.09,68.09-.08,102.14-.02,2.14,0,2.9-.45,2.84-2.73-.16-6.19-.19-12.38,0-18.57.08-2.52-.75-3.02-3.11-3.02-26.35.08-52.71.03-79.06.1-2.15,0-2.82-.49-2.82-2.75.07-34.04.06-68.08.02-102.13,0-1.65.5-2.79,1.67-3.92,6.6-6.4,13.13-12.87,19.68-19.33,17.45-17.19,34.9-34.37,52.3-51.61,1.31-1.3,1.99-1.32,3.32-.03,23.11,22.39,46.28,44.74,69.45,67.06.98.94,1.36,1.91,1.33,3.26-.11,5.21-.06,10.43-.2,15.65-.04,1.62.43,2.17,2.06,2.16,7.07-.06,14.15-.1,21.22.02,2.1.03,2.53-.87,2.5-2.69-.08-4.6.1-9.2-.07-13.79-.09-2.33.69-3.92,2.36-5.52,22.69-21.68,45.34-43.41,67.94-65.19,1.47-1.41,2.22-1.26,3.57.1,22.17,22.47,44.32,44.96,66.68,67.24,3.34,3.33,5.19,6.6,4.53,11.3-.26,1.82.07,3.72-.07,5.56-.16,1.98.36,2.75,2.56,2.72,6.98-.07,13.97.08,20.95.23,1.54.03,1.99-.51,1.98-1.99-.06-4.95.08-9.91-.07-14.85-.06-2.03.53-3.44,2-4.85,22.94-22.06,45.85-44.16,68.7-66.31,1.44-1.39,2.15-1.36,3.54,0,23.95,23.69,47.94,47.34,71.97,70.95,1.2,1.18,1.55,2.37,1.54,3.96-.03,33.87-.06,67.73.04,101.6,0,2.63-.74,3.16-3.23,3.15-26.35-.09-52.71-.04-79.06-.1-2.02,0-2.75.44-2.7,2.61.15,6.36.16,12.73,0,19.1-.05,2.2.7,2.62,2.71,2.6,8.13-.1,16.27-.05,24.41-.04,27.06.02,54.12.04,81.17.06V98.69c-.9.21-1.22-.59-1.67-1.04Z"/>
  <path class="cls-1" d="M307.26,174.14c1.49-6.36,1.43-12.76.24-19.19-1.96-10.61-8.23-17.03-18.6-19.68-5.43-1.39-10.94-2.02-16.52-2.04-14.33-.05-28.65,0-42.98-.05-1.64,0-2.26.3-2.26,2.13.06,34.48.06,68.97,0,103.45,0,1.75.48,2.2,2.2,2.19,7.96-.09,15.92-.13,23.87.02,2.2.04,2.78-.51,2.76-2.74-.13-10.7-.07-21.4-.04-32.1,0-1.01-.57-2.42,1.45-2.38,4.24.09,8.5-.15,12.73.12,6.38.41,9.44,3.61,10.2,10.03.36,3.08.4,6.17.36,9.27-.07,5.31.02,10.59,1.12,15.83.34,1.61.95,1.94,2.43,1.93,8.31-.06,16.62-.02,24.94-.03,2.24,0,3.74-2.39,2.18-3.86-2.58-2.44-2.23-5.42-2.39-8.33-.38-6.88-.2-13.79-1.05-20.64-1-8.04-4.46-14.27-12.75-16.81-.24-.07-.45-.27-.8-.48.79-.51,1.5-.98,2.22-1.44,5.62-3.62,9.18-8.74,10.7-15.2ZM274,179.09c-5.6.83-11.28.19-16.92.33-1.22.03-1.16-.77-1.16-1.6,0-2.91,0-5.82,0-8.74,0-2.65.05-5.3-.02-7.94-.04-1.32.32-1.92,1.76-1.87,5.2.17,10.41-.25,15.61.39,5.55.68,7.89,3.21,8.09,8.87.23,6.67-1.72,9.73-7.36,10.56Z"/>
  <path class="cls-2" d="M159.14,239.63c5.63,1.46,11.41,1.99,17.29,1.91,3.63.05,7.24-.12,10.84-.64-3.6.53-7.21.69-10.84.64-5.88.09-11.66-.44-17.29-1.9Z"/>
  <path class="cls-1" d="M185.6,215.94c-1.79.45-3.64.79-5.47.87-8.81.38-17.5-2.04-20.75-11.52-.37-1.08-.98-1.09-1.8-.95-9.03,1.61-18.05,3.24-27.07,4.85-1.19.21-1.53.61-1.1,1.95,3.98,12.61,11.6,21.86,24.16,26.69,1.84.71,3.7,1.3,5.58,1.79,5.63,1.46,11.41,1.99,17.29,1.9,3.63.06,7.24-.11,10.84-.64,10.49-1.53,19.92-5.32,27.5-13,14.44-14.64,11.23-43.21-11.9-50.82-5.62-1.85-11.36-3.25-17.1-4.65-5.22-1.28-10.61-1.89-15.61-4.03-2.45-1.05-3.87-2.83-3.78-5.5.09-2.65,1.59-4.37,4.07-5.33,8.38-3.25,18.36.25,22.62,8.09.64,1.17,1.11,1.43,2.4,1.03,7.75-2.41,15.53-4.73,23.31-7.03,1.43-.42,1.73-.93,1.07-2.39-4.5-9.99-11.64-17.17-22.04-20.89-10.06-3.6-20.41-3.83-30.85-2.36-7.26,1.03-14.09,3.3-19.94,7.9-9.69,7.62-13.95,17.7-12.46,29.85,1.46,11.94,8.61,19.5,19.72,23.69,7.29,2.75,14.79,4.65,22.4,6.17,3.37.67,6.75,1.36,9.87,2.87,2.8,1.36,4.26,3.68,4,6.29-.3,2.98-2.28,4.49-4.94,5.17Z"/>
  <path class="cls-1" d="M376.01,178.1c4.13-.38,8.29-.54,12.43-.79,4.41-.23,8.82-.5,13.24-.66,1.32-.05,1.91-.36,1.77-1.83-1.13-11.27-4.6-21.55-12.54-29.95-6.92-7.32-15.73-10.46-25.51-11.37-19.55-1.82-36.17,4.84-45.85,24.24-4.88,9.78-6.52,20.27-6.63,31.05-.1,9.87,1.08,19.58,5.16,28.7,10.2,22.79,32.52,30.66,54.61,25.05,17.84-4.53,28.49-18.53,30.71-37.65.11-.96.16-1.65-1.21-1.72-8.73-.48-17.46-1.03-26.19-1.61-1.29-.09-1.65.4-1.75,1.62-.24,3.19-1.02,6.26-2.48,9.12-2.95,5.78-8.98,8.33-15.19,6.36-5.74-1.82-8.2-6.4-9.4-11.81-1.85-8.35-1.91-16.83-1.33-25.32.39-5.66,1.15-11.25,3.71-16.42,2.3-4.64,5.88-7.6,11.26-7.39,5.43.21,8.95,3.42,11.08,8.19,1.42,3.18,1.98,6.6,1.86,10.07-.06,1.78.48,2.27,2.26,2.11Z"/>
  <path class="cls-1" d="M445.79,278.66h0c.35-.07.49.12.61.35-.11-.23-.25-.41-.61-.35Z"/>
  <path class="cls-1" d="M477.08,256.8c-3.27.1-6.54.12-9.81,0-1.63-.06-1.88.61-1.84,2.01.24,7.85-.44,15.73.55,23.57.08.6-.06,1.23-.13,2.33-5.2-9.27-10.91-17.55-16.18-26.1-.78-1.27-1.58-1.85-3.14-1.8-3.88.12-7.78.13-11.66,0-1.67-.05-2.08.5-2.06,2.1.08,6.8.03,13.61.03,20.41,0,9.63.02,19.26-.02,28.89,0,1.48.02,2.49,2.05,2.37,3.26-.19,6.54-.1,9.81-.03,1.24.03,1.71-.32,1.68-1.63-.07-2.52-.07-5.04-.05-7.56.02-2.52.06-5.04.08-7.57.03-5.04-.04-10.09-.59-15.12h0c.35-.07.49.12.61.35.04.08.07.16.11.23,3.78,7.7,8.67,14.74,13.13,22.04,1.88,3.07,3.23,7.24,6.01,8.77,2.79,1.54,7.05.42,10.67.47.27,0,.54-.04.79,0,1.45.23,1.74-.46,1.74-1.8-.04-16.7-.04-33.4,0-50.1,0-1.34-.32-1.87-1.76-1.82Z"/>
  <path class="cls-1" d="M140.8,258.47c0-1.25-.35-1.7-1.64-1.67-3.36.08-6.72.1-10.08,0-1.54-.05-1.7.65-1.68,1.9.06,3.36.03,6.72.02,10.08-.02,5.24-.09,10.48.55,15.73-5.22-8.88-11-17.3-16.39-25.96-.63-1.02-1.19-1.78-2.63-1.75-4.15.11-8.31.08-12.46.01-1.25-.02-1.7.36-1.69,1.64.03,16.79.04,33.59-.01,50.38,0,1.51.62,1.74,1.9,1.71,3.09-.07,6.19-.12,9.28.02,1.8.08,2.45-.37,2.38-2.3-.15-4.15.05-8.31-.07-12.46-.14-4.74.55-9.51-.42-14.24-.09-.45-.28-1.16.37-1.37.83-.27.97.52,1.25,1.04,5.13,9.48,11.24,18.36,16.75,27.61.71,1.19,1.42,1.78,2.89,1.73,3.27-.12,6.54-.08,9.81-.02,1.26.03,1.88-.16,1.87-1.68-.05-16.79-.05-33.59-.01-50.38Z"/>
  <path class="cls-1" d="M176.58,257.23c-8.02-.9-16.07-.12-24.11-.44-1.99-.08-2.27.67-2.25,2.41.09,8.13.04,16.26.04,24.4s0,16.62,0,24.93c0,1.09-.18,2.04,1.53,2.02,7.95-.11,15.92.1,23.86-.21,5.45-.21,10.22-2.52,14.23-6.3,6.8-6.4,8.79-14.5,8.1-23.43-.74-9.45-6.95-21.77-21.39-23.38ZM179.51,291.24c-1.94,5.49-5.77,7.7-11.49,7.09-1.36-.15-1.26-.86-1.26-1.75,0-4.32,0-8.65,0-12.97,0-4.15.09-8.3-.04-12.44-.06-1.8.56-2.17,2.24-2.17,6.11.02,8.95,1.88,10.76,7.7,1.5,4.84,1.49,9.76-.21,14.55Z"/>
  <path class="cls-1" d="M533.07,280.58c-7.16.05-14.33.05-21.49,0-1.25,0-1.44.57-1.42,1.62.05,2.74.06,5.48,0,8.22-.03,1.14.36,1.58,1.51,1.55,1.86-.06,3.72.06,5.57-.04,1.82-.1,2.14.56,1.54,2.18-.97,2.6-3.44,4.36-6.57,4.5-3.25.14-6.79-1.84-7.74-4.98-2.08-6.91-2.19-13.92.29-20.79,1-2.78,3.04-4.48,6.22-4.48,3.78,0,5.95,1.94,7.1,6.5.26,1.02.18,2.05,1.88,1.83,4.38-.56,8.79-.93,13.19-1.32,1-.09,1.4-.32,1.13-1.45-2.04-8.43-6.59-14.66-15.28-16.97-5.56-1.48-11.21-1.32-16.76.36-4.37,1.32-7.9,3.84-10.63,7.51-5.19,6.98-6.58,14.97-5.84,23.37.85,9.61,4.9,17.51,14.2,21.31,8.7,3.55,17.13,2.92,24.26-4.17.84.99,1.06,2.24,1.56,3.36.33.74.17,1.9,1.49,1.82,2.35-.15,4.74.39,7.04-.35.18-.06.18-.8.18-1.23,0-8.93,0-17.86.03-26.79,0-1.1-.23-1.57-1.45-1.56Z"/>
  <path class="cls-1" d="M236.47,278.1c-2.2-.62-4.44-1.12-6.67-1.66-3-.73-6.02-1.36-8.98-2.19-1.24-.35-2.11-1.28-2.08-2.75.03-1.43.8-2.39,2.12-2.7,3.47-.82,7.41-1.21,9.59,1.82,2.33,3.24,4.52,2.48,7.26,1.53,2.08-.72,4.17-1.51,6.32-1.92,2.26-.43,2.35-1.24,1.36-3.11-4.51-8.5-12.04-11.11-21-11.07-4.65,0-9.21.57-13.3,2.94-6.24,3.61-9.33,9.08-8.72,16.29.57,6.71,4.47,10.87,10.78,12.98,3.18,1.07,6.41,1.9,9.7,2.54,2.16.42,4.37.68,6.35,1.73,1.16.62,1.87,1.57,1.79,2.99-.07,1.23-.82,1.89-1.83,2.37-4.49,2.15-11.22.1-13.6-4.27-.57-1.05-1.11-1.41-2.24-1.2-4.07.77-8.15,1.49-12.23,2.21-1.22.22-1.51.65-1.05,1.96,2.28,6.5,6.5,11.04,13.07,13.24,4.59,1.54,9.34,1.89,14.13,1.47,5.45-.49,10.59-1.97,14.84-5.66,4.98-4.33,6.73-9.81,5.37-16.21-1.28-6.02-5.12-9.69-10.97-11.33Z"/>
  <path class="cls-1" d="M385.32,257.32c-9.6-1.1-19.24-.22-28.86-.5-1.85-.05-1.34,1.25-1.34,2.18-.03,8.22-.02,16.43-.02,24.65,0,4.11,0,8.22.01,12.32,0,4.11,0,8.22-.04,12.32-.01,1.62.26,2.33,2.12,2.27,4.15-.15,8.31-.13,12.46,0,1.71.05,2.29-.4,2.24-2.19-.12-5.03.02-10.07-.08-15.11-.03-1.59.36-2.1,2.03-2.09,3.88.01,7.75.26,11.64-.31,9.42-1.39,15.36-7.85,15.35-16.88-.01-9.05-5.98-15.58-15.51-16.67ZM381.21,279.05c-2.81,1.08-5.76.5-8.65.63-.86.04-.97-.53-.96-1.22.02-1.41,0-2.82,0-4.24,0-5.26,0-5.29,5.24-5.16,1.31.03,2.65.17,3.92.46,2.22.51,3.46,1.95,3.59,4.29.14,2.48-.77,4.32-3.15,5.23Z"/>
  <path class="cls-1" d="M67.9,256.88c-1.11-.01-2.21-.04-3.32-.04-1.15,0-2.3.03-3.45.04,1.15,0,2.3-.04,3.45-.04,1.11,0,2.21.03,3.32.04Z"/>
  <path class="cls-1" d="M73.76,258.72c-.42-1.36-.96-2.05-2.55-1.93-1.1.08-2.2.09-3.31.08-1.11-.01-2.21-.04-3.32-.04-1.15,0-2.3.03-3.45.04-1.15,0-2.3,0-3.44-.08-1.64-.11-2.28.52-2.73,2.04-2.21,7.44-4.55,14.84-6.85,22.25-2.81,9.09-5.57,18.21-8.47,27.27-.59,1.83-.27,2.33,1.61,2.19,1.85-.14,3.71-.03,5.57-.03q5.65,0,7.31-5.44c1.59-5.21,1.59-5.23,6.94-5.21,2.91.01,6.45-.9,8.55.43,2.12,1.34,1.91,5.23,2.79,7.98.05.17.17.33.18.5.12,1.46.95,1.79,2.32,1.77,4.33-.08,8.67-.12,13,.01,1.98.06,1.87-.6,1.39-2.12-5.23-16.56-10.41-33.13-15.56-49.72ZM58.55,288.08c1.37-4.91,2.71-9.67,4.04-14.43.17.04.35.08.52.12,1.31,4.72,2.62,9.44,3.97,14.31h-8.53Z"/>
  <path class="cls-1" d="M333.94,258.59c-.42-1.34-.99-1.81-2.38-1.78-4.51.08-9.02.12-13.52-.01-1.76-.05-2.37.6-2.85,2.22-2.15,7.26-4.47,14.48-6.71,21.71-3.04,9.83-6.07,19.66-9.2,29.79,4.29,0,8.34-.02,12.38.01,1.08,0,1.28-.71,1.51-1.49.73-2.45,1.5-4.89,2.19-7.35.34-1.24.86-1.9,2.34-1.86,3.62.12,7.25.08,10.87.01,1.27-.02,1.9.35,2.21,1.65.58,2.4,1.45,4.73,1.99,7.13.34,1.5,1.01,1.97,2.53,1.93,4.24-.1,8.49-.1,12.73,0,1.64.04,2.2-.19,1.62-2.01-5.29-16.64-10.52-33.29-15.71-49.96ZM326.17,288.19c-.09,0-.18,0-.26,0q-7.3.66-5.36-6.29c.78-2.78,1.54-5.57,2.52-9.09,1.46,5.24,2.72,9.77,3.99,14.3.23.82-.07,1.15-.89,1.08Z"/>
  <path class="cls-1" d="M276.68,268.39c2.68.16,4.7,2.09,5.84,5.03.63,1.63-.4,4.09,1.23,4.79,1.52.66,3.63-.05,5.48-.14.44-.02.88,0,1.56,0,1.71-.12,3.65-.41,5.59-.35,2.05.07,2.28-.87,1.98-2.55-.5-2.79-1.21-5.5-2.52-8.03-4.47-8.67-12.06-11.31-21.19-11.07-9.5.25-16.25,4.71-20.28,13.27-2.67,5.67-3.09,11.71-2.77,17.87.88,16.73,13.17,26.58,29.65,23.73,8.93-1.54,15.88-8.73,17.1-17.57.21-1.51.04-2.2-1.75-2.21-3.18-.03-6.39-.08-9.51-.62-2.75-.47-3.81.13-4.28,3.02-.59,3.6-3.17,5.51-6.42,5.6-3,.09-5.75-1.61-6.6-4.74-1.94-7.21-2.09-14.5.43-21.63,1.16-3.27,3.43-4.58,6.48-4.4Z"/>
  <path class="cls-1" d="M35.37,297.19c-5.48.1-10.96-.07-16.43.09-2.04.06-2.45-.55-2.43-2.49.1-11.93.01-23.85.08-35.78.01-1.7-.4-2.28-2.18-2.22-4.06.13-8.13.12-12.19,0-1.71-.05-2.24.41-2.22,2.18.09,8.3.04,16.61.04,24.91s0,16.43,0,24.65c0,1.09-.17,2.02,1.53,2.01,11.57-.06,23.15-.05,34.72-.01,1.17,0,1.51-.41,1.49-1.54-.06-3.18-.15-6.37.02-9.54.11-1.99-.68-2.3-2.43-2.27Z"/>
  <path class="cls-1" d="M423.56,295.92c0-4.11.02-8.21.02-12.32,0-4.11-.01-8.21-.01-12.32,0,4.11.01,8.21.01,12.32,0,4.11-.01,8.21-.02,12.32Z"/>
  <path class="cls-1" d="M423.57,283.6c0-4.11-.01-8.21-.01-12.32,0-4.11,0-8.21.06-12.32.02-1.77-.51-2.23-2.22-2.18-4.15.12-8.3.1-12.45,0-1.52-.04-1.92.45-1.91,1.93.05,16.69.05,33.37,0,50.06,0,1.43.46,1.78,1.81,1.75,4.15-.08,8.3-.13,12.45.02,1.86.06,2.35-.47,2.33-2.33-.05-4.1-.06-8.21-.06-12.31,0-4.11.02-8.21.02-12.32Z"/>
</svg>