<?xml version="1.0" encoding="UTF-8"?>
<svg id="Layer_1" data-name="Layer 1" xmlns="http://www.w3.org/2000/svg" version="1.1" viewBox="0 0 283.46 283.46">
  <defs>
    <style>
      .cls-1 {
        fill: #4eade1;
      }

      .cls-1, .cls-2 {
        stroke-width: 0px;
      }

      .cls-2 {
        fill: #ed8822;
      }
    </style>
  </defs>
  <path class="cls-1" d="M191.24,68.51l-20.79,32.21c15.77,4.82,27.33,19.54,27.33,36.83,0,21.18-17.33,38.5-38.5,38.5h-37.45l-47.87,74.17,51.89-43.57h63.11c34.25,0,62.27-28.02,62.27-62.27v-13.67c0-33.49-26.8-61.01-60.01-62.21Z"/>
  <path class="cls-2" d="M80.13,136.31c0-21.18,17.33-38.5,38.5-38.5h33.55l19.75-30.6h-82.99c-34.25,0-62.27,28.02-62.27,62.27v13.67c0,32.22,24.81,58.92,56.26,61.97l21.36-33.1c-14.13-5.72-24.16-19.59-24.16-35.7Z"/>
</svg>